<svg xmlns="http://www.w3.org/2000/svg" viewBox="0 0 512 512" fill="none">
  <!-- Background -->
  <rect width="512" height="512" rx="96" fill="#111827"/>

  <!-- Shield shape -->
  <path d="M256 68 L420 128 L420 268 C420 350 340 420 256 452 C172 420 92 350 92 268 L92 128 Z"
        fill="#1E3A5F" stroke="#3B82F6" stroke-width="10" stroke-linejoin="round"/>

  <!-- Shield inner highlight -->
  <path d="M256 100 L396 152 L396 268 C396 338 324 400 256 428 C188 400 116 338 116 268 L116 152 Z"
        fill="none" stroke="#93C5FD" stroke-width="3" stroke-linejoin="round" opacity="0.4"/>

  <!-- Barbell shaft inside shield -->
  <rect x="140" y="242" width="232" height="28" rx="14" fill="#E5E7EB"/>

  <!-- Left outer plate -->
  <rect x="126" y="202" width="28" height="108" rx="8" fill="#9CA3AF"/>
  <!-- Left inner plate -->
  <rect x="162" y="216" width="18" height="80" rx="5" fill="#D1D5DB"/>

  <!-- Right inner plate -->
  <rect x="332" y="216" width="18" height="80" rx="5" fill="#D1D5DB"/>
  <!-- Right outer plate -->
  <rect x="358" y="202" width="28" height="108" rx="8" fill="#9CA3AF"/>

  <!-- Subtle star/dot accent at top of shield -->
  <circle cx="256" cy="164" r="10" fill="#3B82F6"/>
  <circle cx="256" cy="164" r="5" fill="#93C5FD"/>
</svg>
